
<svg width="29" height="29" viewBox="0 0 29 29" fill="none" xmlns="http://www.w3.org/2000/svg">
<g clip-path="url(#clip0_5_2562)">
<path d="M23.5625 19.0312H21.75V23.5625H23.5625V19.0312Z" fill="black"/>
<path d="M19.9375 14.5H18.125V23.5625H19.9375V14.5Z" fill="black"/>
<path d="M9.96875 23.5625C8.76742 23.5611 7.6157 23.0832 6.76624 22.2338C5.91677 21.3843 5.43892 20.2326 5.4375 19.0312H7.25C7.25 19.569 7.40945 20.0946 7.70819 20.5417C8.00693 20.9888 8.43154 21.3373 8.92833 21.543C9.42512 21.7488 9.97177 21.8027 10.4992 21.6978C11.0265 21.5929 11.511 21.3339 11.8912 20.9537C12.2714 20.5735 12.5304 20.089 12.6353 19.5617C12.7402 19.0343 12.6863 18.4876 12.4805 17.9908C12.2748 17.494 11.9263 17.0694 11.4792 16.7707C11.0321 16.472 10.5065 16.3125 9.96875 16.3125V14.5C11.1705 14.5 12.3231 14.9774 13.1728 15.8272C14.0226 16.6769 14.5 17.8295 14.5 19.0312C14.5 20.233 14.0226 21.3856 13.1728 22.2353C12.3231 23.0851 11.1705 23.5625 9.96875 23.5625Z" fill="black"/>
<path d="M25.375 1.8125H3.625C3.14444 1.81298 2.6837 2.00409 2.3439 2.3439C2.00409 2.6837 1.81298 3.14444 1.8125 3.625V25.375C1.81305 25.8555 2.00419 26.3162 2.34398 26.656C2.68377 26.9958 3.14446 27.1869 3.625 27.1875H25.375C25.8555 27.1869 26.3161 26.9957 26.6559 26.6559C26.9957 26.3161 27.1869 25.8555 27.1875 25.375V3.625C27.1869 3.14446 26.9958 2.68377 26.656 2.34398C26.3162 2.00419 25.8555 1.81305 25.375 1.8125ZM25.375 9.96875H12.6875V3.625H25.375V9.96875ZM10.875 3.625V9.96875H3.625V3.625H10.875ZM3.625 25.375V11.7812H25.3756L25.3768 25.375H3.625Z" fill="black"/>
</g>
<defs>
<clipPath id="clip0_5_2562">
<rect width="29" height="29" fill="white"/>
</clipPath>
</defs>
</svg>
