<svg width="70" height="70" viewBox="0 0 70 70" fill="none" xmlns="http://www.w3.org/2000/svg">
<path d="M12.425 29.5955C11.6227 35.7367 11.1447 41.916 10.9929 48.1076C19.3894 51.6149 27.4288 55.9223 35 60.9701C42.572 55.9221 50.6125 51.6147 59.01 48.1076C58.858 41.916 58.38 35.7368 57.5779 29.5955M57.5779 29.5955C60.13 28.738 62.7171 27.9447 65.3304 27.2213C55.8121 20.5487 45.6516 14.8427 35 10.188C24.3483 14.8436 14.1878 20.5507 4.66956 27.2242C7.27493 27.9436 9.86007 28.7343 12.4221 29.5955C20.2055 32.2124 27.7576 35.4728 35 39.343C42.2413 35.4727 49.7953 32.2123 57.5779 29.5955ZM19.6875 43.7501C20.2676 43.7501 20.824 43.5196 21.2343 43.1094C21.6445 42.6991 21.875 42.1427 21.875 41.5626C21.875 40.9824 21.6445 40.426 21.2343 40.0158C20.824 39.6055 20.2676 39.3751 19.6875 39.3751C19.1073 39.3751 18.5509 39.6055 18.1407 40.0158C17.7304 40.426 17.5 40.9824 17.5 41.5626C17.5 42.1427 17.7304 42.6991 18.1407 43.1094C18.5509 43.5196 19.1073 43.7501 19.6875 43.7501ZM19.6875 43.7501V33.0313C24.6363 29.9552 29.7479 27.1492 35 24.6255M14.5629 58.313C16.1903 56.6896 17.4808 54.7605 18.3603 52.6367C19.2397 50.5129 19.6908 48.2363 19.6875 45.9376V41.5626" stroke="black" stroke-width="1.5" stroke-linecap="round" stroke-linejoin="round"/>
</svg>
