<svg width="29" height="29" viewBox="0 0 29 29" fill="none" xmlns="http://www.w3.org/2000/svg">
<path d="M14.3572 3.47583C10.4036 3.47583 7.19056 6.68889 7.19056 10.6425V14.0944C7.19056 14.8231 6.88 15.9339 6.50972 16.555L5.13611 18.8364C4.28806 20.2458 4.87334 21.8106 6.42611 22.3361C11.5742 24.0561 17.1283 24.0561 22.2764 22.3361C23.7217 21.8583 24.3547 20.1503 23.5664 18.8364L22.1928 16.555C21.8344 15.9339 21.5239 14.8231 21.5239 14.0944V10.6425C21.5239 6.70083 18.2989 3.47583 14.3572 3.47583Z" stroke="#292D32" stroke-width="1.5" stroke-miterlimit="10" stroke-linecap="round"/>
<path d="M16.5669 3.82214C16.1967 3.71464 15.8144 3.63103 15.4203 3.58325C14.2736 3.43992 13.1747 3.52353 12.1475 3.82214C12.4939 2.93825 13.3539 2.31714 14.3572 2.31714C15.3606 2.31714 16.2206 2.93825 16.5669 3.82214Z" stroke="#292D32" stroke-width="1.5" stroke-miterlimit="10" stroke-linecap="round" stroke-linejoin="round"/>
<path d="M17.9406 22.7661C17.9406 24.7369 16.3281 26.3494 14.3572 26.3494C13.3778 26.3494 12.47 25.9433 11.825 25.2983C11.18 24.6533 10.7739 23.7456 10.7739 22.7661" stroke="#292D32" stroke-width="1.5" stroke-miterlimit="10"/>
</svg>
